<?xml version="1.0" encoding="UTF-8" standalone="no"?>
<!DOCTYPE svg PUBLIC "-//W3C//DTD SVG 1.1//EN"
 "http://www.w3.org/Graphics/SVG/1.1/DTD/svg11.dtd">
<!-- Generated by graphviz version 2.44.0 (0)
 -->
<!-- Pages: 1 -->
<svg width="220pt" height="585pt"
 viewBox="0.00 0.00 220.00 585.44" xmlns="http://www.w3.org/2000/svg" xmlns:xlink="http://www.w3.org/1999/xlink">
<g id="graph0" class="graph" transform="scale(1 1) rotate(0) translate(4 581.44)">
<polygon fill="white" stroke="transparent" points="-4,4 -4,-581.44 216,-581.44 216,4 -4,4"/>
<!-- a\n(0) -->
<g id="node1" class="node">
<title>a\n(0)</title>
<ellipse fill="none" stroke="black" cx="104" cy="-550.57" rx="27" ry="26.74"/>
<text text-anchor="middle" x="104" y="-554.37" font-family="Times,serif" font-size="14.00">a</text>
<text text-anchor="middle" x="104" y="-539.37" font-family="Times,serif" font-size="14.00">(0)</text>
</g>
<!-- e\n(7) -->
<g id="node2" class="node">
<title>e\n(7)</title>
<ellipse fill="none" stroke="black" cx="104" cy="-445.83" rx="27" ry="26.74"/>
<text text-anchor="middle" x="104" y="-449.63" font-family="Times,serif" font-size="14.00">e</text>
<text text-anchor="middle" x="104" y="-434.63" font-family="Times,serif" font-size="14.00">(7)</text>
</g>
<!-- a\n(0)&#45;&gt;e\n(7) -->
<g id="edge1" class="edge">
<title>a\n(0)&#45;&gt;e\n(7)</title>
<path fill="none" stroke="blue" d="M104,-523.64C104,-511.36 104,-496.47 104,-483.08"/>
<polygon fill="blue" stroke="blue" points="107.5,-482.75 104,-472.75 100.5,-482.75 107.5,-482.75"/>
<text text-anchor="middle" x="109" y="-494.5" font-family="Times,serif" font-size="14.00">7</text>
</g>
<!-- f\n(5) -->
<g id="node3" class="node">
<title>f\n(5)</title>
<ellipse fill="none" stroke="black" cx="46" cy="-26.87" rx="27" ry="26.74"/>
<text text-anchor="middle" x="46" y="-30.67" font-family="Times,serif" font-size="14.00">f</text>
<text text-anchor="middle" x="46" y="-15.67" font-family="Times,serif" font-size="14.00">(5)</text>
</g>
<!-- a\n(0)&#45;&gt;f\n(5) -->
<g id="edge2" class="edge">
<title>a\n(0)&#45;&gt;f\n(5)</title>
<path fill="none" stroke="blue" d="M79.62,-538.7C48.88,-523.13 0,-491.37 0,-446.83 0,-446.83 0,-446.83 0,-130.61 0,-104.34 12.68,-77.33 24.73,-57.61"/>
<polygon fill="blue" stroke="blue" points="27.74,-59.39 30.17,-49.08 21.84,-55.63 27.74,-59.39"/>
<text text-anchor="middle" x="5" y="-285.02" font-family="Times,serif" font-size="14.00">5</text>
</g>
<!-- b\n(9) -->
<g id="node4" class="node">
<title>b\n(9)</title>
<ellipse fill="none" stroke="black" cx="185" cy="-341.09" rx="27" ry="26.74"/>
<text text-anchor="middle" x="185" y="-344.89" font-family="Times,serif" font-size="14.00">b</text>
<text text-anchor="middle" x="185" y="-329.89" font-family="Times,serif" font-size="14.00">(9)</text>
</g>
<!-- e\n(7)&#45;&gt;b\n(9) -->
<g id="edge9" class="edge">
<title>e\n(7)&#45;&gt;b\n(9)</title>
<path fill="none" stroke="blue" d="M121.2,-424.94C127.52,-417.5 134.68,-408.92 141,-400.96 148.55,-391.46 156.56,-380.88 163.66,-371.35"/>
<polygon fill="blue" stroke="blue" points="166.48,-373.42 169.62,-363.3 160.85,-369.26 166.48,-373.42"/>
<text text-anchor="middle" x="158" y="-389.76" font-family="Times,serif" font-size="14.00">2</text>
</g>
<!-- c\n(11) -->
<g id="node5" class="node">
<title>c\n(11)</title>
<ellipse fill="none" stroke="black" cx="147" cy="-236.35" rx="31.64" ry="26.74"/>
<text text-anchor="middle" x="147" y="-240.15" font-family="Times,serif" font-size="14.00">c</text>
<text text-anchor="middle" x="147" y="-225.15" font-family="Times,serif" font-size="14.00">(11)</text>
</g>
<!-- e\n(7)&#45;&gt;c\n(11) -->
<g id="edge10" class="edge">
<title>e\n(7)&#45;&gt;c\n(11)</title>
<path fill="none" stroke="blue" d="M109.27,-419.39C116.88,-382.68 130.97,-314.7 139.61,-273"/>
<polygon fill="blue" stroke="blue" points="143.08,-273.5 141.68,-263 136.23,-272.08 143.08,-273.5"/>
<text text-anchor="middle" x="136" y="-337.39" font-family="Times,serif" font-size="14.00">4</text>
</g>
<!-- f\n(5)&#45;&gt;e\n(7) -->
<g id="edge11" class="edge">
<title>f\n(5)&#45;&gt;e\n(7)</title>
<path fill="none" stroke="black" d="M46,-54.05C46,-74.81 46,-104.57 46,-130.61 46,-342.09 46,-342.09 46,-342.09 46,-370.59 63.13,-398.45 78.77,-417.96"/>
<polygon fill="black" stroke="black" points="76.22,-420.37 85.33,-425.78 81.59,-415.87 76.22,-420.37"/>
<text text-anchor="middle" x="51" y="-232.65" font-family="Times,serif" font-size="14.00">2</text>
</g>
<!-- b\n(9)&#45;&gt;a\n(0) -->
<g id="edge3" class="edge">
<title>b\n(9)&#45;&gt;a\n(0)</title>
<path fill="none" stroke="black" d="M177.73,-367.12C174.58,-377.62 170.76,-389.93 167,-400.96 156.01,-433.21 153.23,-441.31 140,-472.7 133.83,-487.34 126.47,-503.29 120.02,-516.84"/>
<polygon fill="black" stroke="black" points="116.68,-515.7 115.51,-526.23 122.99,-518.73 116.68,-515.7"/>
<text text-anchor="middle" x="166" y="-442.13" font-family="Times,serif" font-size="14.00">1</text>
</g>
<!-- b\n(9)&#45;&gt;c\n(11) -->
<g id="edge4" class="edge">
<title>b\n(9)&#45;&gt;c\n(11)</title>
<path fill="none" stroke="black" d="M175.99,-315.74C171.14,-302.63 165.08,-286.23 159.75,-271.83"/>
<polygon fill="black" stroke="black" points="162.96,-270.4 156.2,-262.24 156.39,-272.83 162.96,-270.4"/>
<text text-anchor="middle" x="174" y="-285.02" font-family="Times,serif" font-size="14.00">3</text>
</g>
<!-- d\n(20) -->
<g id="node6" class="node">
<title>d\n(20)</title>
<ellipse fill="none" stroke="black" cx="112" cy="-131.61" rx="31.64" ry="26.74"/>
<text text-anchor="middle" x="112" y="-135.41" font-family="Times,serif" font-size="14.00">d</text>
<text text-anchor="middle" x="112" y="-120.41" font-family="Times,serif" font-size="14.00">(20)</text>
</g>
<!-- c\n(11)&#45;&gt;d\n(20) -->
<g id="edge5" class="edge">
<title>c\n(11)&#45;&gt;d\n(20)</title>
<path fill="none" stroke="blue" d="M139.07,-210.07C135.74,-199.64 131.77,-187.45 128,-176.48 126.95,-173.41 125.83,-170.23 124.7,-167.05"/>
<polygon fill="blue" stroke="blue" points="127.98,-165.83 121.3,-157.61 121.39,-168.2 127.98,-165.83"/>
<text text-anchor="middle" x="138" y="-180.28" font-family="Times,serif" font-size="14.00">9</text>
</g>
<!-- d\n(20)&#45;&gt;e\n(7) -->
<g id="edge7" class="edge">
<title>d\n(20)&#45;&gt;e\n(7)</title>
<path fill="none" stroke="black" d="M109.52,-158.56C108.22,-173.44 106.73,-192.5 106,-209.48 102.96,-279.92 103.11,-362.33 103.53,-408.57"/>
<polygon fill="black" stroke="black" points="100.03,-408.73 103.63,-418.7 107.03,-408.66 100.03,-408.73"/>
<text text-anchor="middle" x="109" y="-285.02" font-family="Times,serif" font-size="14.00">2</text>
</g>
<!-- d\n(20)&#45;&gt;f\n(5) -->
<g id="edge8" class="edge">
<title>d\n(20)&#45;&gt;f\n(5)</title>
<path fill="none" stroke="black" d="M97.19,-107.55C87.97,-93.21 76.01,-74.59 65.97,-58.95"/>
<polygon fill="black" stroke="black" points="68.66,-56.67 60.31,-50.14 62.77,-60.45 68.66,-56.67"/>
<text text-anchor="middle" x="88" y="-75.54" font-family="Times,serif" font-size="14.00">1</text>
</g>
<!-- d\n(20)&#45;&gt;c\n(11) -->
<g id="edge6" class="edge">
<title>d\n(20)&#45;&gt;c\n(11)</title>
<path fill="none" stroke="black" d="M111.37,-158.72C111.84,-169.16 113.32,-181.14 117,-191.48 118.65,-196.12 120.93,-200.74 123.48,-205.14"/>
<polygon fill="black" stroke="black" points="120.69,-207.27 129.03,-213.8 126.59,-203.49 120.69,-207.27"/>
<text text-anchor="middle" x="122" y="-180.28" font-family="Times,serif" font-size="14.00">3</text>
</g>
</g>
</svg>
