<?xml version="1.0" encoding="UTF-8" standalone="no"?>
<!DOCTYPE svg PUBLIC "-//W3C//DTD SVG 1.1//EN"
 "http://www.w3.org/Graphics/SVG/1.1/DTD/svg11.dtd">
<!-- Generated by graphviz version 2.44.0 (0)
 -->
<!-- Pages: 1 -->
<svg width="581pt" height="227pt"
 viewBox="0.00 0.00 581.28 227.00" xmlns="http://www.w3.org/2000/svg" xmlns:xlink="http://www.w3.org/1999/xlink">
<g id="graph0" class="graph" transform="scale(1 1) rotate(0) translate(4 223)">
<polygon fill="white" stroke="transparent" points="-4,4 -4,-223 577.28,-223 577.28,4 -4,4"/>
<!-- a\n(0) -->
<g id="node1" class="node">
<title>a\n(0)</title>
<ellipse fill="none" stroke="black" cx="27" cy="-152" rx="27" ry="26.74"/>
<text text-anchor="middle" x="27" y="-155.8" font-family="Times,serif" font-size="14.00">a</text>
<text text-anchor="middle" x="27" y="-140.8" font-family="Times,serif" font-size="14.00">(0)</text>
</g>
<!-- e\n(7) -->
<g id="node2" class="node">
<title>e\n(7)</title>
<ellipse fill="none" stroke="black" cx="127" cy="-89" rx="27" ry="26.74"/>
<text text-anchor="middle" x="127" y="-92.8" font-family="Times,serif" font-size="14.00">e</text>
<text text-anchor="middle" x="127" y="-77.8" font-family="Times,serif" font-size="14.00">(7)</text>
</g>
<!-- a\n(0)&#45;&gt;e\n(7) -->
<g id="edge1" class="edge">
<title>a\n(0)&#45;&gt;e\n(7)</title>
<path fill="none" stroke="blue" d="M49.87,-137.45C56.92,-132.8 64.77,-127.66 72,-123 79.43,-118.21 87.47,-113.11 95.03,-108.35"/>
<polygon fill="blue" stroke="blue" points="97,-111.24 103.6,-102.96 93.27,-105.32 97,-111.24"/>
<text text-anchor="middle" x="77" y="-126.8" font-family="Times,serif" font-size="14.00">7</text>
</g>
<!-- f\n(5) -->
<g id="node3" class="node">
<title>f\n(5)</title>
<ellipse fill="none" stroke="black" cx="546.28" cy="-76" rx="27" ry="26.74"/>
<text text-anchor="middle" x="546.28" y="-79.8" font-family="Times,serif" font-size="14.00">f</text>
<text text-anchor="middle" x="546.28" y="-64.8" font-family="Times,serif" font-size="14.00">(5)</text>
</g>
<!-- a\n(0)&#45;&gt;f\n(5) -->
<g id="edge2" class="edge">
<title>a\n(0)&#45;&gt;f\n(5)</title>
<path fill="none" stroke="blue" d="M47.42,-169.6C66.13,-184.69 95.95,-204 126,-204 126,-204 126,-204 442.46,-204 490.21,-204 519.5,-149.18 534.04,-111.3"/>
<polygon fill="blue" stroke="blue" points="537.44,-112.19 537.58,-101.6 530.86,-109.78 537.44,-112.19"/>
<text text-anchor="middle" x="277" y="-207.8" font-family="Times,serif" font-size="14.00">5</text>
</g>
<!-- b\n(9) -->
<g id="node4" class="node">
<title>b\n(9)</title>
<ellipse fill="none" stroke="black" cx="227" cy="-149" rx="27" ry="26.74"/>
<text text-anchor="middle" x="227" y="-152.8" font-family="Times,serif" font-size="14.00">b</text>
<text text-anchor="middle" x="227" y="-137.8" font-family="Times,serif" font-size="14.00">(9)</text>
</g>
<!-- e\n(7)&#45;&gt;b\n(9) -->
<g id="edge9" class="edge">
<title>e\n(7)&#45;&gt;b\n(9)</title>
<path fill="none" stroke="blue" d="M150.73,-102.92C163.93,-111 180.75,-121.3 195.14,-130.11"/>
<polygon fill="blue" stroke="blue" points="193.38,-133.13 203.73,-135.37 197.03,-127.16 193.38,-133.13"/>
<text text-anchor="middle" x="177" y="-124.8" font-family="Times,serif" font-size="14.00">2</text>
</g>
<!-- c\n(11) -->
<g id="node5" class="node">
<title>c\n(11)</title>
<ellipse fill="none" stroke="black" cx="331.82" cy="-106" rx="31.64" ry="26.74"/>
<text text-anchor="middle" x="331.82" y="-109.8" font-family="Times,serif" font-size="14.00">c</text>
<text text-anchor="middle" x="331.82" y="-94.8" font-family="Times,serif" font-size="14.00">(11)</text>
</g>
<!-- e\n(7)&#45;&gt;c\n(11) -->
<g id="edge10" class="edge">
<title>e\n(7)&#45;&gt;c\n(11)</title>
<path fill="none" stroke="blue" d="M154.08,-90.62C179.58,-92.25 219.48,-94.97 254,-98 265.66,-99.02 278.3,-100.28 289.89,-101.49"/>
<polygon fill="blue" stroke="blue" points="289.88,-105.01 300.19,-102.58 290.61,-98.05 289.88,-105.01"/>
<text text-anchor="middle" x="227" y="-101.8" font-family="Times,serif" font-size="14.00">4</text>
</g>
<!-- f\n(5)&#45;&gt;e\n(7) -->
<g id="edge11" class="edge">
<title>f\n(5)&#45;&gt;e\n(7)</title>
<path fill="none" stroke="black" d="M529.75,-54.42C511.6,-31.96 479.31,0 442.46,0 226,0 226,0 226,0 191.05,0 163.04,-31.41 146.06,-56.9"/>
<polygon fill="black" stroke="black" points="142.93,-55.3 140.52,-65.62 148.84,-59.06 142.93,-55.3"/>
<text text-anchor="middle" x="331.82" y="-3.8" font-family="Times,serif" font-size="14.00">2</text>
</g>
<!-- b\n(9)&#45;&gt;a\n(0) -->
<g id="edge3" class="edge">
<title>b\n(9)&#45;&gt;a\n(0)</title>
<path fill="none" stroke="black" d="M199.91,-149.4C165.23,-149.92 103.76,-150.85 64.5,-151.45"/>
<polygon fill="black" stroke="black" points="64.24,-147.95 54.29,-151.6 64.34,-154.95 64.24,-147.95"/>
<text text-anchor="middle" x="127" y="-154.8" font-family="Times,serif" font-size="14.00">1</text>
</g>
<!-- b\n(9)&#45;&gt;c\n(11) -->
<g id="edge4" class="edge">
<title>b\n(9)&#45;&gt;c\n(11)</title>
<path fill="none" stroke="black" d="M252.11,-138.92C264.45,-133.76 279.76,-127.35 293.58,-121.57"/>
<polygon fill="black" stroke="black" points="294.98,-124.78 302.86,-117.69 292.28,-118.32 294.98,-124.78"/>
<text text-anchor="middle" x="277" y="-134.8" font-family="Times,serif" font-size="14.00">3</text>
</g>
<!-- d\n(20) -->
<g id="node6" class="node">
<title>d\n(20)</title>
<ellipse fill="none" stroke="black" cx="441.46" cy="-76" rx="31.64" ry="26.74"/>
<text text-anchor="middle" x="441.46" y="-79.8" font-family="Times,serif" font-size="14.00">d</text>
<text text-anchor="middle" x="441.46" y="-64.8" font-family="Times,serif" font-size="14.00">(20)</text>
</g>
<!-- c\n(11)&#45;&gt;d\n(20) -->
<g id="edge5" class="edge">
<title>c\n(11)&#45;&gt;d\n(20)</title>
<path fill="none" stroke="blue" d="M362.87,-99.36C372.14,-97.17 382.35,-94.62 391.64,-92 395,-91.05 398.48,-90.02 401.96,-88.95"/>
<polygon fill="blue" stroke="blue" points="403.19,-92.23 411.67,-85.87 401.08,-85.55 403.19,-92.23"/>
<text text-anchor="middle" x="386.64" y="-98.8" font-family="Times,serif" font-size="14.00">9</text>
</g>
<!-- d\n(20)&#45;&gt;e\n(7) -->
<g id="edge7" class="edge">
<title>d\n(20)&#45;&gt;e\n(7)</title>
<path fill="none" stroke="black" d="M410.37,-69.57C404.2,-68.5 397.73,-67.56 391.64,-67 387.21,-66.6 386.08,-66.92 381.64,-67 345.34,-67.67 336.21,-67.34 300,-70 252.89,-73.46 198.76,-79.84 164.01,-84.24"/>
<polygon fill="black" stroke="black" points="163.35,-80.8 153.88,-85.54 164.24,-87.74 163.35,-80.8"/>
<text text-anchor="middle" x="277" y="-76.8" font-family="Times,serif" font-size="14.00">2</text>
</g>
<!-- d\n(20)&#45;&gt;f\n(5) -->
<g id="edge8" class="edge">
<title>d\n(20)&#45;&gt;f\n(5)</title>
<path fill="none" stroke="black" d="M473.31,-76C484.45,-76 497.13,-76 508.72,-76"/>
<polygon fill="black" stroke="black" points="508.97,-79.5 518.97,-76 508.97,-72.5 508.97,-79.5"/>
<text text-anchor="middle" x="496.28" y="-79.8" font-family="Times,serif" font-size="14.00">1</text>
</g>
<!-- d\n(20)&#45;&gt;c\n(11) -->
<g id="edge6" class="edge">
<title>d\n(20)&#45;&gt;c\n(11)</title>
<path fill="none" stroke="black" d="M410.04,-70.49C400.76,-69.86 390.63,-70.25 381.64,-73 375.35,-74.93 369.14,-77.97 363.36,-81.44"/>
<polygon fill="black" stroke="black" points="361.12,-78.73 354.7,-87.16 364.97,-84.57 361.12,-78.73"/>
<text text-anchor="middle" x="386.64" y="-76.8" font-family="Times,serif" font-size="14.00">3</text>
</g>
</g>
</svg>
