<?xml version="1.0" encoding="UTF-8" standalone="no"?>
<!DOCTYPE svg PUBLIC "-//W3C//DTD SVG 1.1//EN"
 "http://www.w3.org/Graphics/SVG/1.1/DTD/svg11.dtd">
<!-- Generated by graphviz version 2.44.0 (0)
 -->
<!-- Pages: 1 -->
<svg width="573pt" height="219pt"
 viewBox="0.00 0.00 573.05 218.86" xmlns="http://www.w3.org/2000/svg" xmlns:xlink="http://www.w3.org/1999/xlink">
<g id="graph0" class="graph" transform="scale(1 1) rotate(0) translate(4 214.86)">
<polygon fill="white" stroke="transparent" points="-4,4 -4,-214.86 569.05,-214.86 569.05,4 -4,4"/>
<!-- a\n(1) -->
<g id="node1" class="node">
<title>a\n(1)</title>
<ellipse fill="none" stroke="black" cx="27" cy="-93.86" rx="27" ry="26.74"/>
<text text-anchor="middle" x="27" y="-97.66" font-family="Times,serif" font-size="14.00">a</text>
<text text-anchor="middle" x="27" y="-82.66" font-family="Times,serif" font-size="14.00">(1)</text>
</g>
<!-- e\n(2) -->
<g id="node2" class="node">
<title>e\n(2)</title>
<ellipse fill="none" stroke="black" cx="127" cy="-93.86" rx="27" ry="26.74"/>
<text text-anchor="middle" x="127" y="-97.66" font-family="Times,serif" font-size="14.00">e</text>
<text text-anchor="middle" x="127" y="-82.66" font-family="Times,serif" font-size="14.00">(2)</text>
</g>
<!-- a\n(1)&#45;&#45;e\n(2) -->
<g id="edge1" class="edge">
<title>a\n(1)&#45;&#45;e\n(2)</title>
<path fill="none" stroke="black" d="M54,-93.86C68.18,-93.86 85.68,-93.86 99.87,-93.86"/>
<text text-anchor="middle" x="77" y="-97.66" font-family="Times,serif" font-size="14.00">7</text>
</g>
<!-- f\n(inf) -->
<g id="node3" class="node">
<title>f\n(inf)</title>
<ellipse fill="none" stroke="black" cx="532.53" cy="-152.86" rx="32.55" ry="26.74"/>
<text text-anchor="middle" x="532.53" y="-156.66" font-family="Times,serif" font-size="14.00">f</text>
<text text-anchor="middle" x="532.53" y="-141.66" font-family="Times,serif" font-size="14.00">(inf)</text>
</g>
<!-- a\n(1)&#45;&#45;f\n(inf) -->
<g id="edge2" class="edge">
<title>a\n(1)&#45;&#45;f\n(inf)</title>
<path fill="none" stroke="black" d="M38.44,-118.29C53.18,-148.47 83.15,-195.86 126,-195.86 126,-195.86 126,-195.86 428,-195.86 456.61,-195.86 486.5,-181.68 506.76,-169.61"/>
<text text-anchor="middle" x="277" y="-199.66" font-family="Times,serif" font-size="14.00">5</text>
</g>
<!-- b\n(2) -->
<g id="node4" class="node">
<title>b\n(2)</title>
<ellipse fill="none" stroke="black" cx="227" cy="-46.86" rx="27" ry="26.74"/>
<text text-anchor="middle" x="227" y="-50.66" font-family="Times,serif" font-size="14.00">b</text>
<text text-anchor="middle" x="227" y="-35.66" font-family="Times,serif" font-size="14.00">(2)</text>
</g>
<!-- e\n(2)&#45;&#45;b\n(2) -->
<g id="edge8" class="edge">
<title>e\n(2)&#45;&#45;b\n(2)</title>
<path fill="none" stroke="blue" d="M151.72,-82.49C167.02,-75.15 186.84,-65.64 202.16,-58.3"/>
<text text-anchor="middle" x="177" y="-74.66" font-family="Times,serif" font-size="14.00">2</text>
</g>
<!-- c\n(3) -->
<g id="node5" class="node">
<title>c\n(3)</title>
<ellipse fill="none" stroke="black" cx="327" cy="-68.86" rx="27" ry="26.74"/>
<text text-anchor="middle" x="327" y="-72.66" font-family="Times,serif" font-size="14.00">c</text>
<text text-anchor="middle" x="327" y="-57.66" font-family="Times,serif" font-size="14.00">(3)</text>
</g>
<!-- e\n(2)&#45;&#45;c\n(3) -->
<g id="edge9" class="edge">
<title>e\n(2)&#45;&#45;c\n(3)</title>
<path fill="none" stroke="black" d="M154.1,-92.05C162.96,-91.4 172.91,-90.64 182,-89.86 214.03,-87.12 222.18,-87.49 254,-82.86 269.5,-80.61 286.73,-77.29 300.44,-74.45"/>
<text text-anchor="middle" x="227" y="-91.66" font-family="Times,serif" font-size="14.00">4</text>
</g>
<!-- f\n(inf)&#45;&#45;e\n(2) -->
<g id="edge10" class="edge">
<title>f\n(inf)&#45;&#45;e\n(2)</title>
<path fill="none" stroke="blue" d="M499.81,-152.86C479.32,-152.86 452.08,-152.86 428,-152.86 226,-152.86 226,-152.86 226,-152.86 194.62,-152.86 164.65,-130.39 146.29,-113.18"/>
<text text-anchor="middle" x="327" y="-156.66" font-family="Times,serif" font-size="14.00">2</text>
</g>
<!-- b\n(2)&#45;&#45;a\n(1) -->
<g id="edge3" class="edge">
<title>b\n(2)&#45;&#45;a\n(1)</title>
<path fill="none" stroke="blue" d="M200.21,-41.12C174.24,-36.46 133.37,-32.24 100,-42.86 79.86,-49.27 60.51,-63.59 46.95,-75.43"/>
<text text-anchor="middle" x="127" y="-46.66" font-family="Times,serif" font-size="14.00">1</text>
</g>
<!-- b\n(2)&#45;&#45;c\n(3) -->
<g id="edge4" class="edge">
<title>b\n(2)&#45;&#45;c\n(3)</title>
<path fill="none" stroke="blue" d="M253.49,-52.59C267.9,-55.82 285.85,-59.85 300.29,-63.09"/>
<text text-anchor="middle" x="277" y="-61.66" font-family="Times,serif" font-size="14.00">3</text>
</g>
<!-- d\n(9) -->
<g id="node6" class="node">
<title>d\n(9)</title>
<ellipse fill="none" stroke="black" cx="427" cy="-68.86" rx="27" ry="26.74"/>
<text text-anchor="middle" x="427" y="-72.66" font-family="Times,serif" font-size="14.00">d</text>
<text text-anchor="middle" x="427" y="-57.66" font-family="Times,serif" font-size="14.00">(9)</text>
</g>
<!-- c\n(3)&#45;&#45;d\n(9) -->
<g id="edge5" class="edge">
<title>c\n(3)&#45;&#45;d\n(9)</title>
<path fill="none" stroke="blue" d="M354,-68.86C368.18,-68.86 385.68,-68.86 399.87,-68.86"/>
<text text-anchor="middle" x="377" y="-72.66" font-family="Times,serif" font-size="14.00">9</text>
</g>
<!-- d\n(9)&#45;&#45;e\n(2) -->
<g id="edge6" class="edge">
<title>d\n(9)&#45;&#45;e\n(2)</title>
<path fill="none" stroke="black" d="M404.28,-53.95C362.98,-27.6 270.94,21.51 200,-10.86 196.27,-12.57 165.05,-49.45 144.96,-73.47"/>
<text text-anchor="middle" x="277" y="-6.66" font-family="Times,serif" font-size="14.00">2</text>
</g>
<!-- d\n(9)&#45;&#45;f\n(inf) -->
<g id="edge7" class="edge">
<title>d\n(9)&#45;&#45;f\n(inf)</title>
<path fill="none" stroke="black" d="M448.45,-85.46C465.78,-99.52 490.6,-119.65 508.59,-134.25"/>
<text text-anchor="middle" x="477" y="-114.66" font-family="Times,serif" font-size="14.00">1</text>
</g>
</g>
</svg>
