<?xml version="1.0" encoding="UTF-8" standalone="no"?>
<!DOCTYPE svg PUBLIC "-//W3C//DTD SVG 1.1//EN"
 "http://www.w3.org/Graphics/SVG/1.1/DTD/svg11.dtd">
<!-- Generated by graphviz version 2.44.0 (0)
 -->
<!-- Pages: 1 -->
<svg width="584pt" height="227pt"
 viewBox="0.00 0.00 584.11 227.00" xmlns="http://www.w3.org/2000/svg" xmlns:xlink="http://www.w3.org/1999/xlink">
<g id="graph0" class="graph" transform="scale(1 1) rotate(0) translate(4 223)">
<polygon fill="white" stroke="transparent" points="-4,4 -4,-223 580.11,-223 580.11,4 -4,4"/>
<!-- a\n(1) -->
<g id="node1" class="node">
<title>a\n(1)</title>
<ellipse fill="none" stroke="black" cx="27" cy="-152" rx="27" ry="26.74"/>
<text text-anchor="middle" x="27" y="-155.8" font-family="Times,serif" font-size="14.00">a</text>
<text text-anchor="middle" x="27" y="-140.8" font-family="Times,serif" font-size="14.00">(1)</text>
</g>
<!-- e\n(2) -->
<g id="node2" class="node">
<title>e\n(2)</title>
<ellipse fill="none" stroke="black" cx="127" cy="-89" rx="27" ry="26.74"/>
<text text-anchor="middle" x="127" y="-92.8" font-family="Times,serif" font-size="14.00">e</text>
<text text-anchor="middle" x="127" y="-77.8" font-family="Times,serif" font-size="14.00">(2)</text>
</g>
<!-- a\n(1)&#45;&gt;e\n(2) -->
<g id="edge1" class="edge">
<title>a\n(1)&#45;&gt;e\n(2)</title>
<path fill="none" stroke="black" d="M49.87,-137.45C56.92,-132.8 64.77,-127.66 72,-123 79.43,-118.21 87.47,-113.11 95.03,-108.35"/>
<polygon fill="black" stroke="black" points="97,-111.24 103.6,-102.96 93.27,-105.32 97,-111.24"/>
<text text-anchor="middle" x="77" y="-126.8" font-family="Times,serif" font-size="14.00">7</text>
</g>
<!-- f\n(inf) -->
<g id="node3" class="node">
<title>f\n(inf)</title>
<ellipse fill="none" stroke="black" cx="543.58" cy="-76" rx="32.55" ry="26.74"/>
<text text-anchor="middle" x="543.58" y="-79.8" font-family="Times,serif" font-size="14.00">f</text>
<text text-anchor="middle" x="543.58" y="-64.8" font-family="Times,serif" font-size="14.00">(inf)</text>
</g>
<!-- a\n(1)&#45;&gt;f\n(inf) -->
<g id="edge2" class="edge">
<title>a\n(1)&#45;&gt;f\n(inf)</title>
<path fill="none" stroke="black" d="M47.42,-169.6C66.13,-184.69 95.95,-204 126,-204 126,-204 126,-204 433.53,-204 482.3,-204 513.86,-149.48 529.9,-111.61"/>
<polygon fill="black" stroke="black" points="533.32,-112.49 533.83,-101.9 526.83,-109.86 533.32,-112.49"/>
<text text-anchor="middle" x="277" y="-207.8" font-family="Times,serif" font-size="14.00">5</text>
</g>
<!-- b\n(2) -->
<g id="node4" class="node">
<title>b\n(2)</title>
<ellipse fill="none" stroke="black" cx="227" cy="-149" rx="27" ry="26.74"/>
<text text-anchor="middle" x="227" y="-152.8" font-family="Times,serif" font-size="14.00">b</text>
<text text-anchor="middle" x="227" y="-137.8" font-family="Times,serif" font-size="14.00">(2)</text>
</g>
<!-- e\n(2)&#45;&gt;b\n(2) -->
<g id="edge9" class="edge">
<title>e\n(2)&#45;&gt;b\n(2)</title>
<path fill="none" stroke="blue" d="M150.73,-102.92C163.93,-111 180.75,-121.3 195.14,-130.11"/>
<polygon fill="blue" stroke="blue" points="193.38,-133.13 203.73,-135.37 197.03,-127.16 193.38,-133.13"/>
<text text-anchor="middle" x="177" y="-124.8" font-family="Times,serif" font-size="14.00">2</text>
</g>
<!-- c\n(3) -->
<g id="node5" class="node">
<title>c\n(3)</title>
<ellipse fill="none" stroke="black" cx="327" cy="-106" rx="27" ry="26.74"/>
<text text-anchor="middle" x="327" y="-109.8" font-family="Times,serif" font-size="14.00">c</text>
<text text-anchor="middle" x="327" y="-94.8" font-family="Times,serif" font-size="14.00">(3)</text>
</g>
<!-- e\n(2)&#45;&gt;c\n(3) -->
<g id="edge10" class="edge">
<title>e\n(2)&#45;&gt;c\n(3)</title>
<path fill="none" stroke="black" d="M154.09,-90.56C179.58,-92.16 219.49,-94.85 254,-98 265.7,-99.07 278.45,-100.42 289.92,-101.71"/>
<polygon fill="black" stroke="black" points="289.7,-105.21 300.03,-102.86 290.49,-98.25 289.7,-105.21"/>
<text text-anchor="middle" x="227" y="-101.8" font-family="Times,serif" font-size="14.00">4</text>
</g>
<!-- f\n(inf)&#45;&gt;e\n(2) -->
<g id="edge11" class="edge">
<title>f\n(inf)&#45;&gt;e\n(2)</title>
<path fill="none" stroke="blue" d="M525.11,-53.61C505.48,-31.19 471.37,0 433.53,0 226,0 226,0 226,0 191.05,0 163.04,-31.41 146.06,-56.9"/>
<polygon fill="blue" stroke="blue" points="142.93,-55.3 140.52,-65.62 148.84,-59.06 142.93,-55.3"/>
<text text-anchor="middle" x="327" y="-3.8" font-family="Times,serif" font-size="14.00">2</text>
</g>
<!-- b\n(2)&#45;&gt;a\n(1) -->
<g id="edge3" class="edge">
<title>b\n(2)&#45;&gt;a\n(1)</title>
<path fill="none" stroke="blue" d="M199.91,-149.4C165.23,-149.92 103.76,-150.85 64.5,-151.45"/>
<polygon fill="blue" stroke="blue" points="64.24,-147.95 54.29,-151.6 64.34,-154.95 64.24,-147.95"/>
<text text-anchor="middle" x="127" y="-154.8" font-family="Times,serif" font-size="14.00">1</text>
</g>
<!-- b\n(2)&#45;&gt;c\n(3) -->
<g id="edge4" class="edge">
<title>b\n(2)&#45;&gt;c\n(3)</title>
<path fill="none" stroke="black" d="M251.97,-138.48C264.19,-133.12 279.25,-126.51 292.59,-120.66"/>
<polygon fill="black" stroke="black" points="294.18,-123.78 301.93,-116.56 291.37,-117.37 294.18,-123.78"/>
<text text-anchor="middle" x="277" y="-132.8" font-family="Times,serif" font-size="14.00">3</text>
</g>
<!-- d\n(inf) -->
<g id="node6" class="node">
<title>d\n(inf)</title>
<ellipse fill="none" stroke="black" cx="432.53" cy="-76" rx="32.55" ry="26.74"/>
<text text-anchor="middle" x="432.53" y="-79.8" font-family="Times,serif" font-size="14.00">d</text>
<text text-anchor="middle" x="432.53" y="-64.8" font-family="Times,serif" font-size="14.00">(inf)</text>
</g>
<!-- c\n(3)&#45;&gt;d\n(inf) -->
<g id="edge5" class="edge">
<title>c\n(3)&#45;&gt;d\n(inf)</title>
<path fill="none" stroke="black" d="M353.36,-99.75C362.43,-97.43 372.7,-94.71 382,-92 385.36,-91.02 388.83,-89.98 392.3,-88.9"/>
<polygon fill="black" stroke="black" points="393.53,-92.19 402.02,-85.85 391.43,-85.51 393.53,-92.19"/>
<text text-anchor="middle" x="377" y="-98.8" font-family="Times,serif" font-size="14.00">9</text>
</g>
<!-- d\n(inf)&#45;&gt;e\n(2) -->
<g id="edge7" class="edge">
<title>d\n(inf)&#45;&gt;e\n(2)</title>
<path fill="none" stroke="black" d="M400.73,-69.52C394.56,-68.47 388.09,-67.55 382,-67 377.57,-66.6 376.44,-66.91 372,-67 339.98,-67.67 331.94,-67.57 300,-70 252.9,-73.58 198.77,-79.93 164.02,-84.3"/>
<polygon fill="black" stroke="black" points="163.36,-80.85 153.88,-85.58 164.24,-87.8 163.36,-80.85"/>
<text text-anchor="middle" x="277" y="-76.8" font-family="Times,serif" font-size="14.00">2</text>
</g>
<!-- d\n(inf)&#45;&gt;f\n(inf) -->
<g id="edge8" class="edge">
<title>d\n(inf)&#45;&gt;f\n(inf)</title>
<path fill="none" stroke="black" d="M465.07,-76C476.16,-76 488.81,-76 500.62,-76"/>
<polygon fill="black" stroke="black" points="500.73,-79.5 510.73,-76 500.73,-72.5 500.73,-79.5"/>
<text text-anchor="middle" x="488.05" y="-79.8" font-family="Times,serif" font-size="14.00">1</text>
</g>
<!-- d\n(inf)&#45;&gt;c\n(3) -->
<g id="edge6" class="edge">
<title>d\n(inf)&#45;&gt;c\n(3)</title>
<path fill="none" stroke="blue" d="M400.66,-70.18C391.26,-69.53 381.03,-69.99 372,-73 366.2,-74.93 360.54,-77.97 355.33,-81.43"/>
<polygon fill="blue" stroke="blue" points="353,-78.79 347.01,-87.54 357.14,-84.44 353,-78.79"/>
<text text-anchor="middle" x="377" y="-76.8" font-family="Times,serif" font-size="14.00">3</text>
</g>
</g>
</svg>
