<?xml version="1.0" encoding="UTF-8" standalone="no"?>
<!DOCTYPE svg PUBLIC "-//W3C//DTD SVG 1.1//EN"
 "http://www.w3.org/Graphics/SVG/1.1/DTD/svg11.dtd">
<!-- Generated by graphviz version 2.44.0 (0)
 -->
<!-- Pages: 1 -->
<svg width="584pt" height="219pt"
 viewBox="0.00 0.00 584.11 219.14" xmlns="http://www.w3.org/2000/svg" xmlns:xlink="http://www.w3.org/1999/xlink">
<g id="graph0" class="graph" transform="scale(1 1) rotate(0) translate(4 215.14)">
<polygon fill="white" stroke="transparent" points="-4,4 -4,-215.14 580.11,-215.14 580.11,4 -4,4"/>
<!-- a\n(1) -->
<g id="node1" class="node">
<title>a\n(1)</title>
<ellipse fill="none" stroke="black" cx="27" cy="-94.14" rx="27" ry="26.74"/>
<text text-anchor="middle" x="27" y="-97.94" font-family="Times,serif" font-size="14.00">a</text>
<text text-anchor="middle" x="27" y="-82.94" font-family="Times,serif" font-size="14.00">(1)</text>
</g>
<!-- e\n(2) -->
<g id="node2" class="node">
<title>e\n(2)</title>
<ellipse fill="none" stroke="black" cx="127" cy="-94.14" rx="27" ry="26.74"/>
<text text-anchor="middle" x="127" y="-97.94" font-family="Times,serif" font-size="14.00">e</text>
<text text-anchor="middle" x="127" y="-82.94" font-family="Times,serif" font-size="14.00">(2)</text>
</g>
<!-- a\n(1)&#45;&#45;e\n(2) -->
<g id="edge1" class="edge">
<title>a\n(1)&#45;&#45;e\n(2)</title>
<path fill="none" stroke="black" d="M54,-94.14C68.18,-94.14 85.68,-94.14 99.87,-94.14"/>
<text text-anchor="middle" x="77" y="-97.94" font-family="Times,serif" font-size="14.00">7</text>
</g>
<!-- f\n(inf) -->
<g id="node3" class="node">
<title>f\n(inf)</title>
<ellipse fill="none" stroke="black" cx="543.58" cy="-153.14" rx="32.55" ry="26.74"/>
<text text-anchor="middle" x="543.58" y="-156.94" font-family="Times,serif" font-size="14.00">f</text>
<text text-anchor="middle" x="543.58" y="-141.94" font-family="Times,serif" font-size="14.00">(inf)</text>
</g>
<!-- a\n(1)&#45;&#45;f\n(inf) -->
<g id="edge2" class="edge">
<title>a\n(1)&#45;&#45;f\n(inf)</title>
<path fill="none" stroke="black" d="M38.44,-118.57C53.18,-148.75 83.15,-196.14 126,-196.14 126,-196.14 126,-196.14 433.53,-196.14 463.85,-196.14 495.82,-181.57 517.24,-169.4"/>
<text text-anchor="middle" x="277" y="-199.94" font-family="Times,serif" font-size="14.00">5</text>
</g>
<!-- b\n(2) -->
<g id="node4" class="node">
<title>b\n(2)</title>
<ellipse fill="none" stroke="black" cx="227" cy="-47.14" rx="27" ry="26.74"/>
<text text-anchor="middle" x="227" y="-50.94" font-family="Times,serif" font-size="14.00">b</text>
<text text-anchor="middle" x="227" y="-35.94" font-family="Times,serif" font-size="14.00">(2)</text>
</g>
<!-- e\n(2)&#45;&#45;b\n(2) -->
<g id="edge8" class="edge">
<title>e\n(2)&#45;&#45;b\n(2)</title>
<path fill="none" stroke="blue" d="M151.72,-82.76C167.02,-75.43 186.84,-65.92 202.16,-58.58"/>
<text text-anchor="middle" x="177" y="-74.94" font-family="Times,serif" font-size="14.00">2</text>
</g>
<!-- c\n(4) -->
<g id="node5" class="node">
<title>c\n(4)</title>
<ellipse fill="none" stroke="black" cx="327" cy="-69.14" rx="27" ry="26.74"/>
<text text-anchor="middle" x="327" y="-72.94" font-family="Times,serif" font-size="14.00">c</text>
<text text-anchor="middle" x="327" y="-57.94" font-family="Times,serif" font-size="14.00">(4)</text>
</g>
<!-- e\n(2)&#45;&#45;c\n(4) -->
<g id="edge9" class="edge">
<title>e\n(2)&#45;&#45;c\n(4)</title>
<path fill="none" stroke="blue" d="M154.1,-92.33C162.96,-91.68 172.91,-90.92 182,-90.14 214.03,-87.4 222.18,-87.77 254,-83.14 269.5,-80.89 286.73,-77.57 300.44,-74.73"/>
<text text-anchor="middle" x="227" y="-91.94" font-family="Times,serif" font-size="14.00">4</text>
</g>
<!-- f\n(inf)&#45;&#45;e\n(2) -->
<g id="edge10" class="edge">
<title>f\n(inf)&#45;&#45;e\n(2)</title>
<path fill="none" stroke="blue" d="M510.61,-153.14C488.87,-153.14 459.47,-153.14 433.53,-153.14 226,-153.14 226,-153.14 226,-153.14 194.62,-153.14 164.65,-130.67 146.29,-113.46"/>
<text text-anchor="middle" x="327" y="-156.94" font-family="Times,serif" font-size="14.00">2</text>
</g>
<!-- b\n(2)&#45;&#45;a\n(1) -->
<g id="edge3" class="edge">
<title>b\n(2)&#45;&#45;a\n(1)</title>
<path fill="none" stroke="blue" d="M200.21,-41.4C174.24,-36.74 133.37,-32.52 100,-43.14 79.86,-49.55 60.51,-63.87 46.95,-75.71"/>
<text text-anchor="middle" x="127" y="-46.94" font-family="Times,serif" font-size="14.00">1</text>
</g>
<!-- b\n(2)&#45;&#45;c\n(4) -->
<g id="edge4" class="edge">
<title>b\n(2)&#45;&#45;c\n(4)</title>
<path fill="none" stroke="black" d="M253.49,-52.86C267.9,-56.1 285.85,-60.13 300.29,-63.37"/>
<text text-anchor="middle" x="277" y="-61.94" font-family="Times,serif" font-size="14.00">3</text>
</g>
<!-- d\n(inf) -->
<g id="node6" class="node">
<title>d\n(inf)</title>
<ellipse fill="none" stroke="black" cx="432.53" cy="-69.14" rx="32.55" ry="26.74"/>
<text text-anchor="middle" x="432.53" y="-72.94" font-family="Times,serif" font-size="14.00">d</text>
<text text-anchor="middle" x="432.53" y="-57.94" font-family="Times,serif" font-size="14.00">(inf)</text>
</g>
<!-- c\n(4)&#45;&#45;d\n(inf) -->
<g id="edge5" class="edge">
<title>c\n(4)&#45;&#45;d\n(inf)</title>
<path fill="none" stroke="black" d="M354.12,-69.14C368.02,-69.14 385.22,-69.14 399.87,-69.14"/>
<text text-anchor="middle" x="377" y="-72.94" font-family="Times,serif" font-size="14.00">9</text>
</g>
<!-- d\n(inf)&#45;&#45;e\n(2) -->
<g id="edge6" class="edge">
<title>d\n(inf)&#45;&#45;e\n(2)</title>
<path fill="none" stroke="black" d="M406.55,-52.41C363,-25.49 271.06,21.29 200,-11.14 196.27,-12.84 165.05,-49.73 144.96,-73.75"/>
<text text-anchor="middle" x="277" y="-5.94" font-family="Times,serif" font-size="14.00">2</text>
</g>
<!-- d\n(inf)&#45;&#45;f\n(inf) -->
<g id="edge7" class="edge">
<title>d\n(inf)&#45;&#45;f\n(inf)</title>
<path fill="none" stroke="black" d="M456.92,-87.16C475.32,-101.33 500.83,-120.99 519.22,-135.15"/>
<text text-anchor="middle" x="488.05" y="-116.94" font-family="Times,serif" font-size="14.00">1</text>
</g>
</g>
</svg>
